<svg xmlns="http://www.w3.org/2000/svg" xmlns:xlink="http://www.w3.org/1999/xlink" width="800" height="564.46"><rect width="800" height="564.46" rx="0" ry="0" class="a"/><svg height="564.46" viewBox="0 0 80 56.446" width="800" xmlns="http://www.w3.org/2000/svg" xmlns:xlink="http://www.w3.org/1999/xlink"><style>@keyframes g{0%{transform:translateX(-80px)}2.5%{transform:translateX(-160px)}3.8%{transform:translateX(-240px)}5%{transform:translateX(-320px)}6.3%{transform:translateX(-400px)}7.5%{transform:translateX(-480px)}8.8%{transform:translateX(-560px)}10%{transform:translateX(-640px)}11.3%{transform:translateX(-720px)}12.5%{transform:translateX(-800px)}13.8%{transform:translateX(-880px)}15%{transform:translateX(-960px)}16.3%{transform:translateX(-1040px)}17.5%{transform:translateX(-1120px)}18.8%{transform:translateX(-1200px)}20%{transform:translateX(-1280px)}21.3%{transform:translateX(-1360px)}22.5%{transform:translateX(-1440px)}23.8%{transform:translateX(-1520px)}25%{transform:translateX(-1600px)}26.3%{transform:translateX(-1680px)}27.5%{transform:translateX(-1760px)}28.7%{transform:translateX(-1840px)}30%{transform:translateX(-2000px)}37.5%{transform:translateX(-2080px)}38.8%{transform:translateX(-2160px)}40%{transform:translateX(-2400px)}50%{transform:translateX(-2480px)}52.5%{transform:translateX(-2560px)}53.8%{transform:translateX(-2640px)}55%{transform:translateX(-2720px)}56.3%{transform:translateX(-2800px)}57.5%{transform:translateX(-2880px)}58.8%{transform:translateX(-2960px)}60%{transform:translateX(-3040px)}61.3%{transform:translateX(-3200px)}to{transform:translateX(-3280px)}}.a{fill:#282d35}.c,.d{white-space:pre}.c{fill:#71bef2;font-weight:700}.d{fill:#b9c0cb}</style><g font-family="Monaco,Consolas,Menlo,'Bitstream Vera Sans Mono','Powerline Symbols',monospace" font-size="1.67"><defs><symbol id="1"><text y="1.67" class="c">$</text></symbol><symbol id="2"><text y="1.67" class="c">$</text><text x="2.004" y="1.67" class="d">l</text></symbol><symbol id="3"><text y="1.67" class="c">$</text><text x="2.004" y="1.67" class="d">lish</text></symbol><symbol id="4"><text y="1.67" class="c">$</text><text x="2.004" y="1.67" class="d">lish</text><text x="7.014" y="1.67" class="d">-a</text></symbol><symbol id="5"><text y="1.67" class="c">$</text><text x="2.004" y="1.67" class="d">lish</text><text x="7.014" y="1.67" class="d">-a</text><text x="10.02" y="1.67" class="d">&apos;First</text></symbol><symbol id="6"><text y="1.67" class="c">$</text><text x="2.004" y="1.67" class="d">lish</text><text x="7.014" y="1.67" class="d">-a</text><text x="10.02" y="1.67" class="d">&apos;First</text><text x="17.034" y="1.67" class="d">Last&apos;</text></symbol><symbol id="7"><text y="1.67" class="c">$</text><text x="2.004" y="1.67" class="d">lish</text><text x="7.014" y="1.67" class="d">-a</text><text x="10.02" y="1.67" class="d">&apos;First</text><text x="17.034" y="1.67" class="d">Last&apos;</text><text x="23.046" y="1.67" class="d">m</text></symbol><symbol id="8"><text y="1.67" class="c">$</text><text x="2.004" y="1.67" class="d">ls</text></symbol><symbol id="9"><text y="1.67" class="d">LICENSE</text></symbol><symbol id="10"><text y="1.67" class="c">$</text><text x="2.004" y="1.67" class="d">cat</text></symbol><symbol id="11"><text y="1.67" class="c">$</text><text x="2.004" y="1.67" class="d">cat</text><text x="6.012" y="1.67" class="d">LICENSE</text></symbol><symbol id="12"><text y="1.67" class="d">MIT</text><text x="4.008" y="1.67" class="d">License</text></symbol><symbol id="13"><text y="1.67" class="d">Copyright</text><text x="10.02" y="1.67" class="d">(c)</text><text x="14.028" y="1.67" class="d">2020</text><text x="19.038" y="1.67" class="d">First</text><text x="25.05" y="1.67" class="d">Last</text></symbol><symbol id="14"><text y="1.67" class="d">Permission</text><text x="11.022" y="1.67" class="d">is</text><text x="14.028" y="1.67" class="d">hereby</text><text x="21.042" y="1.67" class="d">granted,</text><text x="30.06" y="1.67" class="d">free</text><text x="35.07" y="1.67" class="d">of</text><text x="38.076" y="1.67" class="d">charge,</text><text x="46.092" y="1.67" class="d">to</text><text x="49.098" y="1.67" class="d">any</text><text x="53.106" y="1.67" class="d">person</text><text x="60.12" y="1.67" class="d">obtaining</text><text x="70.14" y="1.67" class="d">a</text><text x="72.144" y="1.67" class="d">copy</text></symbol><symbol id="15"><text y="1.67" class="d">of</text><text x="3.006" y="1.67" class="d">this</text><text x="8.016" y="1.67" class="d">software</text><text x="17.034" y="1.67" class="d">and</text><text x="21.042" y="1.67" class="d">associated</text><text x="32.064" y="1.67" class="d">documentation</text><text x="46.092" y="1.67" class="d">files</text><text x="52.104" y="1.67" class="d">(the</text><text x="57.114" y="1.67" class="d">&quot;Software&quot;),</text><text x="70.14" y="1.67" class="d">to</text><text x="73.146" y="1.67" class="d">deal</text></symbol><symbol id="16"><text y="1.67" class="d">in</text><text x="3.006" y="1.67" class="d">the</text><text x="7.014" y="1.67" class="d">Software</text><text x="16.032" y="1.67" class="d">without</text><text x="24.048" y="1.67" class="d">restriction,</text><text x="37.074" y="1.67" class="d">including</text><text x="47.094" y="1.67" class="d">without</text><text x="55.11" y="1.67" class="d">limitation</text><text x="66.132" y="1.67" class="d">the</text><text x="70.14" y="1.67" class="d">rights</text></symbol><symbol id="17"><text y="1.67" class="d">to</text><text x="3.006" y="1.67" class="d">use,</text><text x="8.016" y="1.67" class="d">copy,</text><text x="14.028" y="1.67" class="d">modify,</text><text x="22.044" y="1.67" class="d">merge,</text><text x="29.058" y="1.67" class="d">publish,</text><text x="38.076" y="1.67" class="d">distribute,</text><text x="50.1" y="1.67" class="d">sublicense,</text><text x="62.124" y="1.67" class="d">and/or</text><text x="69.138" y="1.67" class="d">sell</text></symbol><symbol id="18"><text y="1.67" class="d">copies</text><text x="7.014" y="1.67" class="d">of</text><text x="10.02" y="1.67" class="d">the</text><text x="14.028" y="1.67" class="d">Software,</text><text x="24.048" y="1.67" class="d">and</text><text x="28.056" y="1.67" class="d">to</text><text x="31.062" y="1.67" class="d">permit</text><text x="38.076" y="1.67" class="d">persons</text><text x="46.092" y="1.67" class="d">to</text><text x="49.098" y="1.67" class="d">whom</text><text x="54.108" y="1.67" class="d">the</text><text x="58.116" y="1.67" class="d">Software</text><text x="67.134" y="1.67" class="d">is</text></symbol><symbol id="19"><text y="1.67" class="d">furnished</text><text x="10.02" y="1.67" class="d">to</text><text x="13.026" y="1.67" class="d">do</text><text x="16.032" y="1.67" class="d">so,</text><text x="20.04" y="1.67" class="d">subject</text><text x="28.056" y="1.67" class="d">to</text><text x="31.062" y="1.67" class="d">the</text><text x="35.07" y="1.67" class="d">following</text><text x="45.09" y="1.67" class="d">conditions:</text></symbol><symbol id="20"><text y="1.67" class="d">The</text><text x="4.008" y="1.67" class="d">above</text><text x="10.02" y="1.67" class="d">copyright</text><text x="20.04" y="1.67" class="d">notice</text><text x="27.054" y="1.67" class="d">and</text><text x="31.062" y="1.67" class="d">this</text><text x="36.072" y="1.67" class="d">permission</text><text x="47.094" y="1.67" class="d">notice</text><text x="54.108" y="1.67" class="d">shall</text><text x="60.12" y="1.67" class="d">be</text><text x="63.126" y="1.67" class="d">included</text><text x="72.144" y="1.67" class="d">in</text><text x="75.15" y="1.67" class="d">all</text></symbol><symbol id="21"><text y="1.67" class="d">copies</text><text x="7.014" y="1.67" class="d">or</text><text x="10.02" y="1.67" class="d">substantial</text><text x="22.044" y="1.67" class="d">portions</text><text x="31.062" y="1.67" class="d">of</text><text x="34.068" y="1.67" class="d">the</text><text x="38.076" y="1.67" class="d">Software.</text></symbol><symbol id="22"><text y="1.67" class="d">THE</text><text x="4.008" y="1.67" class="d">SOFTWARE</text><text x="13.026" y="1.67" class="d">IS</text><text x="16.032" y="1.67" class="d">PROVIDED</text><text x="25.05" y="1.67" class="d">&quot;AS</text><text x="29.058" y="1.67" class="d">IS&quot;,</text><text x="34.068" y="1.67" class="d">WITHOUT</text><text x="42.084" y="1.67" class="d">WARRANTY</text><text x="51.102" y="1.67" class="d">OF</text><text x="54.108" y="1.67" class="d">ANY</text><text x="58.116" y="1.67" class="d">KIND,</text><text x="64.128" y="1.67" class="d">EXPRESS</text><text x="72.144" y="1.67" class="d">OR</text></symbol><symbol id="23"><text y="1.67" class="d">IMPLIED,</text><text x="9.018" y="1.67" class="d">INCLUDING</text><text x="19.038" y="1.67" class="d">BUT</text><text x="23.046" y="1.67" class="d">NOT</text><text x="27.054" y="1.67" class="d">LIMITED</text><text x="35.07" y="1.67" class="d">TO</text><text x="38.076" y="1.67" class="d">THE</text><text x="42.084" y="1.67" class="d">WARRANTIES</text><text x="53.106" y="1.67" class="d">OF</text><text x="56.112" y="1.67" class="d">MERCHANTABILITY,</text></symbol><symbol id="24"><text y="1.67" class="d">FITNESS</text><text x="8.016" y="1.67" class="d">FOR</text><text x="12.024" y="1.67" class="d">A</text><text x="14.028" y="1.67" class="d">PARTICULAR</text><text x="25.05" y="1.67" class="d">PURPOSE</text><text x="33.066" y="1.67" class="d">AND</text><text x="37.074" y="1.67" class="d">NONINFRINGEMENT.</text><text x="54.108" y="1.67" class="d">IN</text><text x="57.114" y="1.67" class="d">NO</text><text x="60.12" y="1.67" class="d">EVENT</text><text x="66.132" y="1.67" class="d">SHALL</text><text x="72.144" y="1.67" class="d">THE</text></symbol><symbol id="25"><text y="1.67" class="d">AUTHORS</text><text x="8.016" y="1.67" class="d">OR</text><text x="11.022" y="1.67" class="d">COPYRIGHT</text><text x="21.042" y="1.67" class="d">HOLDERS</text><text x="29.058" y="1.67" class="d">BE</text><text x="32.064" y="1.67" class="d">LIABLE</text><text x="39.078" y="1.67" class="d">FOR</text><text x="43.086" y="1.67" class="d">ANY</text><text x="47.094" y="1.67" class="d">CLAIM,</text><text x="54.108" y="1.67" class="d">DAMAGES</text><text x="62.124" y="1.67" class="d">OR</text><text x="65.13" y="1.67" class="d">OTHER</text></symbol><symbol id="26"><text y="1.67" class="d">LIABILITY,</text><text x="11.022" y="1.67" class="d">WHETHER</text><text x="19.038" y="1.67" class="d">IN</text><text x="22.044" y="1.67" class="d">AN</text><text x="25.05" y="1.67" class="d">ACTION</text><text x="32.064" y="1.67" class="d">OF</text><text x="35.07" y="1.67" class="d">CONTRACT,</text><text x="45.09" y="1.67" class="d">TORT</text><text x="50.1" y="1.67" class="d">OR</text><text x="53.106" y="1.67" class="d">OTHERWISE,</text><text x="64.128" y="1.67" class="d">ARISING</text><text x="72.144" y="1.67" class="d">FROM,</text></symbol><symbol id="27"><text y="1.67" class="d">OUT</text><text x="4.008" y="1.67" class="d">OF</text><text x="7.014" y="1.67" class="d">OR</text><text x="10.02" y="1.67" class="d">IN</text><text x="13.026" y="1.67" class="d">CONNECTION</text><text x="24.048" y="1.67" class="d">WITH</text><text x="29.058" y="1.67" class="d">THE</text><text x="33.066" y="1.67" class="d">SOFTWARE</text><text x="42.084" y="1.67" class="d">OR</text><text x="45.09" y="1.67" class="d">THE</text><text x="49.098" y="1.67" class="d">USE</text><text x="53.106" y="1.67" class="d">OR</text><text x="56.112" y="1.67" class="d">OTHER</text><text x="62.124" y="1.67" class="d">DEALINGS</text><text x="71.142" y="1.67" class="d">IN</text><text x="74.148" y="1.67" class="d">THE</text></symbol><symbol id="28"><text y="1.67" class="d">SOFTWARE.</text></symbol><symbol id="a"><path fill="transparent" d="M0 0h80v26H0z"/></symbol><symbol id="b"><path fill="#6f7683" d="M0 0h1.102v2.171H0z"/></symbol></defs><path class="a" d="M0 0h80v56.446H0z"/><g style="animation-duration:8s;animation-iteration-count:infinite;animation-name:g;animation-timing-function:steps(1,end)"><svg width="3360"><svg><use xlink:href="#a"/><use xlink:href="#b" x="-.004"/></svg><svg x="80"><use xlink:href="#a"/><use xlink:href="#b" x="1.996"/><use xlink:href="#1"/></svg><svg x="160"><use xlink:href="#a"/><use xlink:href="#b" x="2.996"/><use xlink:href="#2"/></svg><svg x="240"><use xlink:href="#a"/><use xlink:href="#b" x="3.996"/><text y="1.67" class="c">$</text><text x="2.004" y="1.67" class="d">li</text></svg><svg x="320"><use xlink:href="#a"/><use xlink:href="#b" x="4.996"/><text y="1.67" class="c">$</text><text x="2.004" y="1.67" class="d">lis</text></svg><svg x="400"><use xlink:href="#a"/><use xlink:href="#b" x="5.996"/><use xlink:href="#3"/></svg><svg x="480"><use xlink:href="#a"/><use xlink:href="#b" x="6.996"/><use xlink:href="#3"/></svg><svg x="560"><use xlink:href="#a"/><use xlink:href="#b" x="7.996"/><text y="1.67" class="c">$</text><text x="2.004" y="1.67" class="d">lish</text><text x="7.014" y="1.67" class="d">-</text></svg><svg x="640"><use xlink:href="#a"/><use xlink:href="#b" x="8.996"/><use xlink:href="#4"/></svg><svg x="720"><use xlink:href="#a"/><use xlink:href="#b" x="9.996"/><use xlink:href="#4"/></svg><svg x="800"><use xlink:href="#a"/><use xlink:href="#b" x="10.996"/><text y="1.67" class="c">$</text><text x="2.004" y="1.67" class="d">lish</text><text x="7.014" y="1.67" class="d">-a</text><text x="10.02" y="1.67" class="d">&apos;</text></svg><svg x="880"><use xlink:href="#a"/><use xlink:href="#b" x="11.996"/><text y="1.67" class="c">$</text><text x="2.004" y="1.67" class="d">lish</text><text x="7.014" y="1.67" class="d">-a</text><text x="10.02" y="1.67" class="d">&apos;F</text></svg><svg x="960"><use xlink:href="#a"/><use xlink:href="#b" x="12.996"/><text y="1.67" class="c">$</text><text x="2.004" y="1.67" class="d">lish</text><text x="7.014" y="1.67" class="d">-a</text><text x="10.02" y="1.67" class="d">&apos;Fi</text></svg><svg x="1040"><use xlink:href="#a"/><use xlink:href="#b" x="13.996"/><text y="1.67" class="c">$</text><text x="2.004" y="1.67" class="d">lish</text><text x="7.014" y="1.67" class="d">-a</text><text x="10.02" y="1.67" class="d">&apos;Fir</text></svg><svg x="1120"><use xlink:href="#a"/><use xlink:href="#b" x="14.996"/><text y="1.67" class="c">$</text><text x="2.004" y="1.67" class="d">lish</text><text x="7.014" y="1.67" class="d">-a</text><text x="10.02" y="1.67" class="d">&apos;Firs</text></svg><svg x="1200"><use xlink:href="#a"/><use xlink:href="#b" x="15.996"/><use xlink:href="#5"/></svg><svg x="1280"><use xlink:href="#a"/><use xlink:href="#b" x="16.996"/><use xlink:href="#5"/></svg><svg x="1360"><use xlink:href="#a"/><use xlink:href="#b" x="17.996"/><text y="1.67" class="c">$</text><text x="2.004" y="1.67" class="d">lish</text><text x="7.014" y="1.67" class="d">-a</text><text x="10.02" y="1.67" class="d">&apos;First</text><text x="17.034" y="1.67" class="d">L</text></svg><svg x="1440"><use xlink:href="#a"/><use xlink:href="#b" x="18.996"/><text y="1.67" class="c">$</text><text x="2.004" y="1.67" class="d">lish</text><text x="7.014" y="1.67" class="d">-a</text><text x="10.02" y="1.67" class="d">&apos;First</text><text x="17.034" y="1.67" class="d">La</text></svg><svg x="1520"><use xlink:href="#a"/><use xlink:href="#b" x="19.996"/><text y="1.67" class="c">$</text><text x="2.004" y="1.67" class="d">lish</text><text x="7.014" y="1.67" class="d">-a</text><text x="10.02" y="1.67" class="d">&apos;First</text><text x="17.034" y="1.67" class="d">Las</text></svg><svg x="1600"><use xlink:href="#a"/><use xlink:href="#b" x="20.996"/><text y="1.67" class="c">$</text><text x="2.004" y="1.67" class="d">lish</text><text x="7.014" y="1.67" class="d">-a</text><text x="10.02" y="1.67" class="d">&apos;First</text><text x="17.034" y="1.67" class="d">Last</text></svg><svg x="1680"><use xlink:href="#a"/><use xlink:href="#b" x="21.996"/><use xlink:href="#6"/></svg><svg x="1760"><use xlink:href="#a"/><use xlink:href="#b" x="22.996"/><use xlink:href="#6"/></svg><svg x="1840"><use xlink:href="#a"/><use xlink:href="#b" x="23.996"/><use xlink:href="#7"/></svg><svg x="1920"><use xlink:href="#a"/><use xlink:href="#b" x="-.004" y="2.146"/><use xlink:href="#7"/></svg><svg x="2000"><use xlink:href="#a"/><use xlink:href="#b" x="1.996" y="2.146"/><use xlink:href="#7"/><use xlink:href="#1" y="2.171"/></svg><svg x="2080"><use xlink:href="#a"/><use xlink:href="#b" x="2.996" y="2.146"/><use xlink:href="#7"/><use xlink:href="#2" y="2.171"/></svg><svg x="2160"><use xlink:href="#a"/><use xlink:href="#b" x="3.996" y="2.146"/><use xlink:href="#7"/><use xlink:href="#8" y="2.171"/></svg><svg x="2240"><use xlink:href="#a"/><use xlink:href="#b" x="-.004" y="4.317"/><use xlink:href="#7"/><use xlink:href="#8" y="2.171"/></svg><svg x="2320"><use xlink:href="#a"/><use xlink:href="#b" x="-.004" y="6.488"/><use xlink:href="#7"/><use xlink:href="#8" y="2.171"/><use xlink:href="#9" y="4.342"/></svg><svg x="2400"><use xlink:href="#a"/><use xlink:href="#b" x="1.996" y="6.488"/><use xlink:href="#7"/><use xlink:href="#8" y="2.171"/><use xlink:href="#9" y="4.342"/><use xlink:href="#1" y="6.513"/></svg><svg x="2480"><use xlink:href="#a"/><use xlink:href="#b" x="2.996" y="6.488"/><use xlink:href="#7"/><use xlink:href="#8" y="2.171"/><use xlink:href="#9" y="4.342"/><text y="8.183" class="c">$</text><text x="2.004" y="8.183" class="d">c</text></svg><svg x="2560"><use xlink:href="#a"/><use xlink:href="#b" x="3.996" y="6.488"/><use xlink:href="#7"/><use xlink:href="#8" y="2.171"/><use xlink:href="#9" y="4.342"/><text y="8.183" class="c">$</text><text x="2.004" y="8.183" class="d">ca</text></svg><svg x="2640"><use xlink:href="#a"/><use xlink:href="#b" x="4.996" y="6.488"/><use xlink:href="#7"/><use xlink:href="#8" y="2.171"/><use xlink:href="#9" y="4.342"/><use xlink:href="#10" y="6.513"/></svg><svg x="2720"><use xlink:href="#a"/><use xlink:href="#b" x="5.996" y="6.488"/><use xlink:href="#7"/><use xlink:href="#8" y="2.171"/><use xlink:href="#9" y="4.342"/><use xlink:href="#10" y="6.513"/></svg><svg x="2800"><use xlink:href="#a"/><use xlink:href="#b" x="6.996" y="6.488"/><use xlink:href="#7"/><use xlink:href="#8" y="2.171"/><use xlink:href="#9" y="4.342"/><text y="8.183" class="c">$</text><text x="2.004" y="8.183" class="d">cat</text><text x="6.012" y="8.183" class="d">L</text></svg><svg x="2880"><use xlink:href="#a"/><use xlink:href="#b" x="13.996" y="6.488"/><use xlink:href="#7"/><use xlink:href="#8" y="2.171"/><use xlink:href="#9" y="4.342"/><use xlink:href="#11" y="6.513"/></svg><svg x="2960"><use xlink:href="#a"/><use xlink:href="#b" x="-.004" y="8.659"/><use xlink:href="#7"/><use xlink:href="#8" y="2.171"/><use xlink:href="#9" y="4.342"/><use xlink:href="#11" y="6.513"/></svg><svg x="3040"><use xlink:href="#a"/><use xlink:href="#b" x="25.996" y="49.908"/><use xlink:href="#7"/><use xlink:href="#8" y="2.171"/><use xlink:href="#9" y="4.342"/><use xlink:href="#11" y="6.513"/><use xlink:href="#12" y="8.684"/><use xlink:href="#13" y="13.026"/><use xlink:href="#14" y="17.368"/><use xlink:href="#15" y="19.539"/><use xlink:href="#16" y="21.71"/><use xlink:href="#17" y="23.881"/><use xlink:href="#18" y="26.052"/><use xlink:href="#19" y="28.223"/><use xlink:href="#20" y="32.565"/><use xlink:href="#21" y="34.736"/><use xlink:href="#22" y="39.078"/><use xlink:href="#23" y="41.249"/><use xlink:href="#24" y="43.42"/><use xlink:href="#25" y="45.591"/><use xlink:href="#26" y="47.762"/><text y="51.603" class="d">OUT</text><text x="4.008" y="51.603" class="d">OF</text><text x="7.014" y="51.603" class="d">OR</text><text x="10.02" y="51.603" class="d">IN</text><text x="13.026" y="51.603" class="d">CONNECTION</text><text x="24.048" y="51.603" class="d">WI</text></svg><svg x="3120"><use xlink:href="#a"/><use xlink:href="#b" x="-.004" y="54.25"/><use xlink:href="#7"/><use xlink:href="#8" y="2.171"/><use xlink:href="#9" y="4.342"/><use xlink:href="#11" y="6.513"/><use xlink:href="#12" y="8.684"/><use xlink:href="#13" y="13.026"/><use xlink:href="#14" y="17.368"/><use xlink:href="#15" y="19.539"/><use xlink:href="#16" y="21.71"/><use xlink:href="#17" y="23.881"/><use xlink:href="#18" y="26.052"/><use xlink:href="#19" y="28.223"/><use xlink:href="#20" y="32.565"/><use xlink:href="#21" y="34.736"/><use xlink:href="#22" y="39.078"/><use xlink:href="#23" y="41.249"/><use xlink:href="#24" y="43.42"/><use xlink:href="#25" y="45.591"/><use xlink:href="#26" y="47.762"/><use xlink:href="#27" y="49.933"/><use xlink:href="#28" y="52.104"/></svg><svg x="3200"><use xlink:href="#a"/><use xlink:href="#b" x="1.996" y="54.25"/><use xlink:href="#7"/><use xlink:href="#8" y="2.171"/><use xlink:href="#9" y="4.342"/><use xlink:href="#11" y="6.513"/><use xlink:href="#12" y="8.684"/><use xlink:href="#13" y="13.026"/><use xlink:href="#14" y="17.368"/><use xlink:href="#15" y="19.539"/><use xlink:href="#16" y="21.71"/><use xlink:href="#17" y="23.881"/><use xlink:href="#18" y="26.052"/><use xlink:href="#19" y="28.223"/><use xlink:href="#20" y="32.565"/><use xlink:href="#21" y="34.736"/><use xlink:href="#22" y="39.078"/><use xlink:href="#23" y="41.249"/><use xlink:href="#24" y="43.42"/><use xlink:href="#25" y="45.591"/><use xlink:href="#26" y="47.762"/><use xlink:href="#27" y="49.933"/><use xlink:href="#28" y="52.104"/><use xlink:href="#1" y="54.275"/></svg><svg x="3280"><use xlink:href="#a"/><use xlink:href="#b" x="1.996" y="54.25"/><use xlink:href="#7"/><use xlink:href="#8" y="2.171"/><use xlink:href="#9" y="4.342"/><use xlink:href="#11" y="6.513"/><use xlink:href="#12" y="8.684"/><use xlink:href="#13" y="13.026"/><use xlink:href="#14" y="17.368"/><use xlink:href="#15" y="19.539"/><use xlink:href="#16" y="21.71"/><use xlink:href="#17" y="23.881"/><use xlink:href="#18" y="26.052"/><use xlink:href="#19" y="28.223"/><use xlink:href="#20" y="32.565"/><use xlink:href="#21" y="34.736"/><use xlink:href="#22" y="39.078"/><use xlink:href="#23" y="41.249"/><use xlink:href="#24" y="43.42"/><use xlink:href="#25" y="45.591"/><use xlink:href="#26" y="47.762"/><use xlink:href="#27" y="49.933"/><use xlink:href="#28" y="52.104"/><use xlink:href="#1" y="54.275"/></svg></svg></g></g></svg></svg>